<?xml version="1.0" encoding="UTF-8"?>
<mxfile host="app.diagrams.net" agent="Mozilla/5.0 (Macintosh; Intel Mac OS X 10_15_7) AppleWebKit/605.1.15 (KHTML, like Gecko) Version/18.0 Safari/605.1.15" version="24.8.3">
  <diagram name="Страница — 1" id="5Icx0bFq11m2tHFuqUy6">
    <mxGraphModel dx="5229" dy="3086" grid="1" gridSize="10" guides="1" tooltips="1" connect="1" arrows="1" fold="1" page="1" pageScale="1" pageWidth="827" pageHeight="1169" math="0" shadow="0">
      <root>
        <mxCell id="0" />
        <mxCell id="1" parent="0" />
        <mxCell id="2" value="User" style="swimlane;fontStyle=1;align=center;verticalAlign=top;childLayout=stackLayout;horizontal=1;startSize=23.94375;horizontalStack=0;resizeParent=1;resizeParentMax=0;resizeLast=0;collapsible=0;marginBottom=0;fillColor=#d5e8d4;strokeColor=#82b366;" vertex="1" parent="1">
          <mxGeometry x="1609.5" y="1680" width="255" height="199.94375" as="geometry" />
        </mxCell>
        <mxCell id="3" value="+String userID" style="text;strokeColor=none;fillColor=none;align=left;verticalAlign=top;spacingLeft=4;spacingRight=4;overflow=hidden;rotatable=0;points=[[0,0.5],[1,0.5]];portConstraint=eastwest;" vertex="1" parent="2">
          <mxGeometry y="23.94375" width="255" height="24" as="geometry" />
        </mxCell>
        <mxCell id="4" value="+String username" style="text;strokeColor=none;fillColor=none;align=left;verticalAlign=top;spacingLeft=4;spacingRight=4;overflow=hidden;rotatable=0;points=[[0,0.5],[1,0.5]];portConstraint=eastwest;" vertex="1" parent="2">
          <mxGeometry y="47.94375" width="255" height="24" as="geometry" />
        </mxCell>
        <mxCell id="5" value="+String email" style="text;strokeColor=none;fillColor=none;align=left;verticalAlign=top;spacingLeft=4;spacingRight=4;overflow=hidden;rotatable=0;points=[[0,0.5],[1,0.5]];portConstraint=eastwest;" vertex="1" parent="2">
          <mxGeometry y="71.94375" width="255" height="24" as="geometry" />
        </mxCell>
        <mxCell id="6" value="+String token" style="text;strokeColor=none;fillColor=none;align=left;verticalAlign=top;spacingLeft=4;spacingRight=4;overflow=hidden;rotatable=0;points=[[0,0.5],[1,0.5]];portConstraint=eastwest;" vertex="1" parent="2">
          <mxGeometry y="95.94375" width="255" height="24" as="geometry" />
        </mxCell>
        <mxCell id="7" style="line;strokeWidth=1;fillColor=none;align=left;verticalAlign=middle;spacingTop=-1;spacingLeft=3;spacingRight=3;rotatable=0;labelPosition=right;points=[];portConstraint=eastwest;strokeColor=inherit;" vertex="1" parent="2">
          <mxGeometry y="119.94375" width="255" height="8" as="geometry" />
        </mxCell>
        <mxCell id="8" value="+login(username, password)" style="text;strokeColor=none;fillColor=none;align=left;verticalAlign=top;spacingLeft=4;spacingRight=4;overflow=hidden;rotatable=0;points=[[0,0.5],[1,0.5]];portConstraint=eastwest;" vertex="1" parent="2">
          <mxGeometry y="127.94375" width="255" height="24" as="geometry" />
        </mxCell>
        <mxCell id="9" value="+logout(userID)" style="text;strokeColor=none;fillColor=none;align=left;verticalAlign=top;spacingLeft=4;spacingRight=4;overflow=hidden;rotatable=0;points=[[0,0.5],[1,0.5]];portConstraint=eastwest;" vertex="1" parent="2">
          <mxGeometry y="151.94375" width="255" height="24" as="geometry" />
        </mxCell>
        <mxCell id="10" value="+Config config" style="text;strokeColor=none;fillColor=none;align=left;verticalAlign=top;spacingLeft=4;spacingRight=4;overflow=hidden;rotatable=0;points=[[0,0.5],[1,0.5]];portConstraint=eastwest;" vertex="1" parent="2">
          <mxGeometry y="175.94375" width="255" height="24" as="geometry" />
        </mxCell>
        <mxCell id="11" value="IdpRequestManager" style="swimlane;fontStyle=1;align=center;verticalAlign=top;childLayout=stackLayout;horizontal=1;startSize=24.39375;horizontalStack=0;resizeParent=1;resizeParentMax=0;resizeLast=0;collapsible=0;marginBottom=0;fillColor=#d5e8d4;strokeColor=#82b366;" vertex="1" parent="1">
          <mxGeometry x="1360" y="2090" width="390" height="200.00375000000003" as="geometry" />
        </mxCell>
        <mxCell id="12" value="+String requestID" style="text;strokeColor=none;fillColor=none;align=left;verticalAlign=top;spacingLeft=4;spacingRight=4;overflow=hidden;rotatable=0;points=[[0,0.5],[1,0.5]];portConstraint=eastwest;" vertex="1" parent="11">
          <mxGeometry y="24.39375" width="390" height="24" as="geometry" />
        </mxCell>
        <mxCell id="13" style="line;strokeWidth=1;fillColor=none;align=left;verticalAlign=middle;spacingTop=-1;spacingLeft=3;spacingRight=3;rotatable=0;labelPosition=right;points=[];portConstraint=eastwest;strokeColor=inherit;" vertex="1" parent="11">
          <mxGeometry y="72.39375" width="390" height="8" as="geometry" />
        </mxCell>
        <mxCell id="14" value="+IdpRequestManager(String params)" style="text;strokeColor=none;fillColor=none;align=left;verticalAlign=top;spacingLeft=4;spacingRight=4;overflow=hidden;rotatable=0;points=[[0,0.5],[1,0.5]];portConstraint=eastwest;" vertex="1" parent="11">
          <mxGeometry y="80.39375" width="390" height="40" as="geometry" />
        </mxCell>
        <mxCell id="15" value="+checkAccessRequest(User user, string dbID)" style="text;strokeColor=none;fillColor=none;align=left;verticalAlign=top;spacingLeft=4;spacingRight=4;overflow=hidden;rotatable=0;points=[[0,0.5],[1,0.5]];portConstraint=eastwest;" vertex="1" parent="11">
          <mxGeometry y="120.39375" width="390" height="40" as="geometry" />
        </mxCell>
        <mxCell id="16" value="+submitAccessRequest(User user, string dbID)" style="text;strokeColor=none;fillColor=none;align=left;verticalAlign=top;spacingLeft=4;spacingRight=4;overflow=hidden;rotatable=0;points=[[0,0.5],[1,0.5]];portConstraint=eastwest;" vertex="1" parent="11">
          <mxGeometry y="160.39375" width="390" height="39.61" as="geometry" />
        </mxCell>
        <mxCell id="17" value="+String params" style="text;strokeColor=none;fillColor=none;align=left;verticalAlign=top;spacingLeft=4;spacingRight=4;overflow=hidden;rotatable=0;points=[[0,0.5],[1,0.5]];portConstraint=eastwest;" vertex="1" parent="11">
          <mxGeometry y="48.39375" width="390" height="24" as="geometry" />
        </mxCell>
        <mxCell id="18" value="DBCredential" style="swimlane;fontStyle=1;align=center;verticalAlign=top;childLayout=stackLayout;horizontal=1;startSize=24.18198529411765;horizontalStack=0;resizeParent=1;resizeParentMax=0;resizeLast=0;collapsible=0;marginBottom=0;fillColor=#d5e8d4;strokeColor=#82b366;" vertex="1" parent="1">
          <mxGeometry x="1039.66" y="2110" width="265" height="176.18198529411765" as="geometry" />
        </mxCell>
        <mxCell id="19" value="+String credentialID" style="text;strokeColor=none;fillColor=none;align=left;verticalAlign=top;spacingLeft=4;spacingRight=4;overflow=hidden;rotatable=0;points=[[0,0.5],[1,0.5]];portConstraint=eastwest;" vertex="1" parent="18">
          <mxGeometry y="24.18198529411765" width="265" height="24" as="geometry" />
        </mxCell>
        <mxCell id="20" value="+String approvedUserID" style="text;strokeColor=none;fillColor=none;align=left;verticalAlign=top;spacingLeft=4;spacingRight=4;overflow=hidden;rotatable=0;points=[[0,0.5],[1,0.5]];portConstraint=eastwest;" vertex="1" parent="18">
          <mxGeometry y="48.18198529411765" width="265" height="24" as="geometry" />
        </mxCell>
        <mxCell id="21" value="+DateTime expirationDate" style="text;strokeColor=none;fillColor=none;align=left;verticalAlign=top;spacingLeft=4;spacingRight=4;overflow=hidden;rotatable=0;points=[[0,0.5],[1,0.5]];portConstraint=eastwest;" vertex="1" parent="18">
          <mxGeometry y="72.18198529411765" width="265" height="24" as="geometry" />
        </mxCell>
        <mxCell id="22" style="line;strokeWidth=1;fillColor=none;align=left;verticalAlign=middle;spacingTop=-1;spacingLeft=3;spacingRight=3;rotatable=0;labelPosition=right;points=[];portConstraint=eastwest;strokeColor=inherit;" vertex="1" parent="18">
          <mxGeometry y="96.18198529411765" width="265" height="8" as="geometry" />
        </mxCell>
        <mxCell id="23" value="+requestCredential(String userID, String dbID)" style="text;strokeColor=none;fillColor=none;align=left;verticalAlign=top;spacingLeft=4;spacingRight=4;overflow=hidden;rotatable=0;points=[[0,0.5],[1,0.5]];portConstraint=eastwest;" vertex="1" parent="18">
          <mxGeometry y="104.18198529411765" width="265" height="24" as="geometry" />
        </mxCell>
        <mxCell id="24" value="+revokeCredential()" style="text;strokeColor=none;fillColor=none;align=left;verticalAlign=top;spacingLeft=4;spacingRight=4;overflow=hidden;rotatable=0;points=[[0,0.5],[1,0.5]];portConstraint=eastwest;" vertex="1" parent="18">
          <mxGeometry y="128.18198529411765" width="265" height="24" as="geometry" />
        </mxCell>
        <mxCell id="25" value="+renewCredential()" style="text;strokeColor=none;fillColor=none;align=left;verticalAlign=top;spacingLeft=4;spacingRight=4;overflow=hidden;rotatable=0;points=[[0,0.5],[1,0.5]];portConstraint=eastwest;" vertex="1" parent="18">
          <mxGeometry y="152.18198529411765" width="265" height="24" as="geometry" />
        </mxCell>
        <mxCell id="26" style="edgeStyle=none;shape=connector;rounded=0;orthogonalLoop=1;jettySize=auto;html=1;strokeColor=default;align=center;verticalAlign=middle;fontFamily=Helvetica;fontSize=11;fontColor=default;labelBackgroundColor=default;endArrow=none;endFill=0;startArrow=diamond;startFill=1;" edge="1" source="29" target="43" parent="1">
          <mxGeometry relative="1" as="geometry" />
        </mxCell>
        <mxCell id="27" value="1" style="edgeLabel;html=1;align=center;verticalAlign=middle;resizable=0;points=[];" connectable="0" vertex="1" parent="26">
          <mxGeometry x="0.6182" y="1" relative="1" as="geometry">
            <mxPoint x="5" as="offset" />
          </mxGeometry>
        </mxCell>
        <mxCell id="28" value="1" style="edgeLabel;html=1;align=center;verticalAlign=middle;resizable=0;points=[];" connectable="0" vertex="1" parent="26">
          <mxGeometry x="-0.6701" y="3" relative="1" as="geometry">
            <mxPoint as="offset" />
          </mxGeometry>
        </mxCell>
        <mxCell id="29" value="ExternalDB" style="swimlane;fontStyle=5;align=center;verticalAlign=top;childLayout=stackLayout;horizontal=1;startSize=24.28125;horizontalStack=0;resizeParent=1;resizeParentMax=0;resizeLast=0;collapsible=0;marginBottom=0;fillColor=#d5e8d4;strokeColor=#82b366;" vertex="1" parent="1">
          <mxGeometry x="940" y="2340" width="350" height="248.28125" as="geometry" />
        </mxCell>
        <mxCell id="30" value="+String dbID" style="text;strokeColor=none;fillColor=none;align=left;verticalAlign=top;spacingLeft=4;spacingRight=4;overflow=hidden;rotatable=0;points=[[0,0.5],[1,0.5]];portConstraint=eastwest;" vertex="1" parent="29">
          <mxGeometry y="24.28125" width="350" height="24" as="geometry" />
        </mxCell>
        <mxCell id="31" value="+String dbName" style="text;strokeColor=none;fillColor=none;align=left;verticalAlign=top;spacingLeft=4;spacingRight=4;overflow=hidden;rotatable=0;points=[[0,0.5],[1,0.5]];portConstraint=eastwest;" vertex="1" parent="29">
          <mxGeometry y="48.28125" width="350" height="24" as="geometry" />
        </mxCell>
        <mxCell id="32" value="+Scheme scheme" style="text;strokeColor=none;fillColor=none;align=left;verticalAlign=top;spacingLeft=4;spacingRight=4;overflow=hidden;rotatable=0;points=[[0,0.5],[1,0.5]];portConstraint=eastwest;" vertex="1" parent="29">
          <mxGeometry y="72.28125" width="350" height="24" as="geometry" />
        </mxCell>
        <mxCell id="33" value="+DBCredential credentials" style="text;strokeColor=none;fillColor=none;align=left;verticalAlign=top;spacingLeft=4;spacingRight=4;overflow=hidden;rotatable=0;points=[[0,0.5],[1,0.5]];portConstraint=eastwest;" vertex="1" parent="29">
          <mxGeometry y="96.28125" width="350" height="24" as="geometry" />
        </mxCell>
        <mxCell id="34" style="line;strokeWidth=1;fillColor=none;align=left;verticalAlign=middle;spacingTop=-1;spacingLeft=3;spacingRight=3;rotatable=0;labelPosition=right;points=[];portConstraint=eastwest;strokeColor=inherit;fontStyle=4" vertex="1" parent="29">
          <mxGeometry y="120.28125" width="350" height="8" as="geometry" />
        </mxCell>
        <mxCell id="35" value="+ExternalDB(Scheme scheme, DBCredential credentials)" style="text;strokeColor=none;fillColor=none;align=left;verticalAlign=top;spacingLeft=4;spacingRight=4;overflow=hidden;rotatable=0;points=[[0,0.5],[1,0.5]];portConstraint=eastwest;fontStyle=0" vertex="1" parent="29">
          <mxGeometry y="128.28125" width="350" height="24" as="geometry" />
        </mxCell>
        <mxCell id="36" value="+readScheme()" style="text;strokeColor=none;fillColor=none;align=left;verticalAlign=top;spacingLeft=4;spacingRight=4;overflow=hidden;rotatable=0;points=[[0,0.5],[1,0.5]];portConstraint=eastwest;fontStyle=0" vertex="1" parent="29">
          <mxGeometry y="152.28125" width="350" height="24" as="geometry" />
        </mxCell>
        <mxCell id="37" value="+readColumn(String columnID)" style="text;strokeColor=none;fillColor=none;align=left;verticalAlign=top;spacingLeft=4;spacingRight=4;overflow=hidden;rotatable=0;points=[[0,0.5],[1,0.5]];portConstraint=eastwest;fontStyle=0" vertex="1" parent="29">
          <mxGeometry y="176.28125" width="350" height="24" as="geometry" />
        </mxCell>
        <mxCell id="38" value="+modifyColumn(string columnID, Column newColumn)" style="text;strokeColor=none;fillColor=none;align=left;verticalAlign=top;spacingLeft=4;spacingRight=4;overflow=hidden;rotatable=0;points=[[0,0.5],[1,0.5]];portConstraint=eastwest;fontStyle=0" vertex="1" parent="29">
          <mxGeometry y="200.28125" width="350" height="24" as="geometry" />
        </mxCell>
        <mxCell id="39" value="+connect()" style="text;strokeColor=none;fillColor=none;align=left;verticalAlign=top;spacingLeft=4;spacingRight=4;overflow=hidden;rotatable=0;points=[[0,0.5],[1,0.5]];portConstraint=eastwest;fontStyle=0" vertex="1" parent="29">
          <mxGeometry y="224.28125" width="350" height="24" as="geometry" />
        </mxCell>
        <mxCell id="40" style="edgeStyle=none;shape=connector;rounded=0;orthogonalLoop=1;jettySize=auto;html=1;entryX=0;entryY=0.5;entryDx=0;entryDy=0;strokeColor=default;align=center;verticalAlign=middle;fontFamily=Helvetica;fontSize=11;fontColor=default;labelBackgroundColor=default;endArrow=none;endFill=0;startArrow=diamond;startFill=1;" edge="1" source="43" target="56" parent="1">
          <mxGeometry relative="1" as="geometry" />
        </mxCell>
        <mxCell id="41" value="*" style="edgeLabel;html=1;align=center;verticalAlign=middle;resizable=0;points=[];" connectable="0" vertex="1" parent="40">
          <mxGeometry x="0.1768" y="2" relative="1" as="geometry">
            <mxPoint x="5" y="-16" as="offset" />
          </mxGeometry>
        </mxCell>
        <mxCell id="42" value="1" style="edgeLabel;html=1;align=center;verticalAlign=middle;resizable=0;points=[];" connectable="0" vertex="1" parent="40">
          <mxGeometry x="-0.184" y="2" relative="1" as="geometry">
            <mxPoint x="-7" y="-15" as="offset" />
          </mxGeometry>
        </mxCell>
        <mxCell id="43" value="Scheme" style="swimlane;fontStyle=1;align=center;verticalAlign=top;childLayout=stackLayout;horizontal=1;startSize=24.28125;horizontalStack=0;resizeParent=1;resizeParentMax=0;resizeLast=0;collapsible=0;marginBottom=0;fillColor=#B9E0A5;" vertex="1" parent="1">
          <mxGeometry x="870" y="2690" width="390" height="200.28125" as="geometry" />
        </mxCell>
        <mxCell id="44" value="+String schemeID" style="text;strokeColor=none;fillColor=none;align=left;verticalAlign=top;spacingLeft=4;spacingRight=4;overflow=hidden;rotatable=0;points=[[0,0.5],[1,0.5]];portConstraint=eastwest;" vertex="1" parent="43">
          <mxGeometry y="24.28125" width="390" height="24" as="geometry" />
        </mxCell>
        <mxCell id="45" value="+String schemeName" style="text;strokeColor=none;fillColor=none;align=left;verticalAlign=top;spacingLeft=4;spacingRight=4;overflow=hidden;rotatable=0;points=[[0,0.5],[1,0.5]];portConstraint=eastwest;" vertex="1" parent="43">
          <mxGeometry y="48.28125" width="390" height="24" as="geometry" />
        </mxCell>
        <mxCell id="46" value="+Column[] columns" style="text;strokeColor=none;fillColor=none;align=left;verticalAlign=top;spacingLeft=4;spacingRight=4;overflow=hidden;rotatable=0;points=[[0,0.5],[1,0.5]];portConstraint=eastwest;" vertex="1" parent="43">
          <mxGeometry y="72.28125" width="390" height="24" as="geometry" />
        </mxCell>
        <mxCell id="47" style="line;strokeWidth=1;fillColor=none;align=left;verticalAlign=middle;spacingTop=-1;spacingLeft=3;spacingRight=3;rotatable=0;labelPosition=right;points=[];portConstraint=eastwest;strokeColor=inherit;" vertex="1" parent="43">
          <mxGeometry y="96.28125" width="390" height="8" as="geometry" />
        </mxCell>
        <mxCell id="48" value="+Scheme(Column[] columns)" style="text;strokeColor=none;fillColor=none;align=left;verticalAlign=top;spacingLeft=4;spacingRight=4;overflow=hidden;rotatable=0;points=[[0,0.5],[1,0.5]];portConstraint=eastwest;" vertex="1" parent="43">
          <mxGeometry y="104.28125" width="390" height="24" as="geometry" />
        </mxCell>
        <mxCell id="49" value="+createColumn(Column column)" style="text;strokeColor=none;fillColor=none;align=left;verticalAlign=top;spacingLeft=4;spacingRight=4;overflow=hidden;rotatable=0;points=[[0,0.5],[1,0.5]];portConstraint=eastwest;" vertex="1" parent="43">
          <mxGeometry y="128.28125" width="390" height="24" as="geometry" />
        </mxCell>
        <mxCell id="50" value="+readColumn(String columnID)" style="text;strokeColor=none;fillColor=none;align=left;verticalAlign=top;spacingLeft=4;spacingRight=4;overflow=hidden;rotatable=0;points=[[0,0.5],[1,0.5]];portConstraint=eastwest;" vertex="1" parent="43">
          <mxGeometry y="152.28125" width="390" height="24" as="geometry" />
        </mxCell>
        <mxCell id="51" value="+updateColumn(String columnID, Column newColumn)" style="text;strokeColor=none;fillColor=none;align=left;verticalAlign=top;spacingLeft=4;spacingRight=4;overflow=hidden;rotatable=0;points=[[0,0.5],[1,0.5]];portConstraint=eastwest;" vertex="1" parent="43">
          <mxGeometry y="176.28125" width="390" height="24" as="geometry" />
        </mxCell>
        <mxCell id="52" value="Column" style="swimlane;fontStyle=1;align=center;verticalAlign=top;childLayout=stackLayout;horizontal=1;startSize=24.39375;horizontalStack=0;resizeParent=1;resizeParentMax=0;resizeLast=0;collapsible=0;marginBottom=0;fillColor=#B9E0A5;" vertex="1" parent="1">
          <mxGeometry x="1304.66" y="2756.69" width="300" height="152.39375" as="geometry" />
        </mxCell>
        <mxCell id="53" value="+String columnID" style="text;strokeColor=none;fillColor=none;align=left;verticalAlign=top;spacingLeft=4;spacingRight=4;overflow=hidden;rotatable=0;points=[[0,0.5],[1,0.5]];portConstraint=eastwest;" vertex="1" parent="52">
          <mxGeometry y="24.39375" width="300" height="24" as="geometry" />
        </mxCell>
        <mxCell id="54" value="+String columnName" style="text;strokeColor=none;fillColor=none;align=left;verticalAlign=top;spacingLeft=4;spacingRight=4;overflow=hidden;rotatable=0;points=[[0,0.5],[1,0.5]];portConstraint=eastwest;" vertex="1" parent="52">
          <mxGeometry y="48.39375" width="300" height="24" as="geometry" />
        </mxCell>
        <mxCell id="55" value="+DataType dataType" style="text;strokeColor=none;fillColor=none;align=left;verticalAlign=top;spacingLeft=4;spacingRight=4;overflow=hidden;rotatable=0;points=[[0,0.5],[1,0.5]];portConstraint=eastwest;fontStyle=0" vertex="1" parent="52">
          <mxGeometry y="72.39375" width="300" height="24" as="geometry" />
        </mxCell>
        <mxCell id="56" value="+T[] columnData" style="text;strokeColor=none;fillColor=none;align=left;verticalAlign=top;spacingLeft=4;spacingRight=4;overflow=hidden;rotatable=0;points=[[0,0.5],[1,0.5]];portConstraint=eastwest;" vertex="1" parent="52">
          <mxGeometry y="96.39375" width="300" height="24" as="geometry" />
        </mxCell>
        <mxCell id="57" style="line;strokeWidth=1;fillColor=none;align=left;verticalAlign=middle;spacingTop=-1;spacingLeft=3;spacingRight=3;rotatable=0;labelPosition=right;points=[];portConstraint=eastwest;strokeColor=inherit;" vertex="1" parent="52">
          <mxGeometry y="120.39375" width="300" height="8" as="geometry" />
        </mxCell>
        <mxCell id="58" value="+Column(T[] columnData)" style="text;strokeColor=none;fillColor=none;align=left;verticalAlign=top;spacingLeft=4;spacingRight=4;overflow=hidden;rotatable=0;points=[[0,0.5],[1,0.5]];portConstraint=eastwest;" vertex="1" parent="52">
          <mxGeometry y="128.39375" width="300" height="24" as="geometry" />
        </mxCell>
        <mxCell id="59" value="Config" style="swimlane;fontStyle=1;align=center;verticalAlign=top;childLayout=stackLayout;horizontal=1;startSize=24.28125;horizontalStack=0;resizeParent=1;resizeParentMax=0;resizeLast=0;collapsible=0;marginBottom=0;fillColor=#d5e8d4;strokeColor=#82b366;" vertex="1" parent="1">
          <mxGeometry x="1898" y="1589.9999999999998" width="340" height="176.28125" as="geometry" />
        </mxCell>
        <mxCell id="60" value="+String configID" style="text;strokeColor=none;fillColor=none;align=left;verticalAlign=top;spacingLeft=4;spacingRight=4;overflow=hidden;rotatable=0;points=[[0,0.5],[1,0.5]];portConstraint=eastwest;" vertex="1" parent="59">
          <mxGeometry y="24.28125" width="340" height="24" as="geometry" />
        </mxCell>
        <mxCell id="61" value="+String rawConfig" style="text;strokeColor=none;fillColor=none;align=left;verticalAlign=top;spacingLeft=4;spacingRight=4;overflow=hidden;rotatable=0;points=[[0,0.5],[1,0.5]];portConstraint=eastwest;" vertex="1" parent="59">
          <mxGeometry y="48.28125" width="340" height="24" as="geometry" />
        </mxCell>
        <mxCell id="62" value="+ConfigValidationStatus validationStatus" style="text;strokeColor=none;fillColor=none;align=left;verticalAlign=top;spacingLeft=4;spacingRight=4;overflow=hidden;rotatable=0;points=[[0,0.5],[1,0.5]];portConstraint=eastwest;" vertex="1" parent="59">
          <mxGeometry y="72.28125" width="340" height="24" as="geometry" />
        </mxCell>
        <mxCell id="63" value="+ Step[] steps" style="text;strokeColor=none;fillColor=none;align=left;verticalAlign=top;spacingLeft=4;spacingRight=4;overflow=hidden;rotatable=0;points=[[0,0.5],[1,0.5]];portConstraint=eastwest;" vertex="1" parent="59">
          <mxGeometry y="96.28125" width="340" height="24" as="geometry" />
        </mxCell>
        <mxCell id="64" style="line;strokeWidth=1;fillColor=none;align=left;verticalAlign=middle;spacingTop=-1;spacingLeft=3;spacingRight=3;rotatable=0;labelPosition=right;points=[];portConstraint=eastwest;strokeColor=inherit;" vertex="1" parent="59">
          <mxGeometry y="120.28125" width="340" height="8" as="geometry" />
        </mxCell>
        <mxCell id="65" value="+Config()" style="text;strokeColor=none;fillColor=none;align=left;verticalAlign=top;spacingLeft=4;spacingRight=4;overflow=hidden;rotatable=0;points=[[0,0.5],[1,0.5]];portConstraint=eastwest;" vertex="1" parent="59">
          <mxGeometry y="128.28125" width="340" height="24" as="geometry" />
        </mxCell>
        <mxCell id="66" value="+loadConfig(String fileName)" style="text;strokeColor=none;fillColor=none;align=left;verticalAlign=top;spacingLeft=4;spacingRight=4;overflow=hidden;rotatable=0;points=[[0,0.5],[1,0.5]];portConstraint=eastwest;" vertex="1" parent="59">
          <mxGeometry y="152.28125" width="340" height="24" as="geometry" />
        </mxCell>
        <mxCell id="67" value="+String SSOURI" style="text;strokeColor=none;fillColor=none;align=left;verticalAlign=top;spacingLeft=4;spacingRight=4;overflow=hidden;rotatable=0;points=[[0,0.5],[1,0.5]];portConstraint=eastwest;" vertex="1" parent="59">
          <mxGeometry y="192.28125" width="340" height="24" as="geometry" />
        </mxCell>
        <mxCell id="68" value="&lt;&lt;enumeration&gt;&gt;&#xa;ConfigValidationStatus" style="swimlane;fontStyle=1;align=center;verticalAlign=top;childLayout=stackLayout;horizontal=1;startSize=40;horizontalStack=0;resizeParent=1;resizeParentMax=0;resizeLast=0;collapsible=0;marginBottom=0;fillColor=#d5e8d4;strokeColor=#82b366;" vertex="1" parent="1">
          <mxGeometry x="2210" y="1870" width="183" height="98" as="geometry" />
        </mxCell>
        <mxCell id="69" value="+Success" style="text;strokeColor=none;fillColor=none;align=left;verticalAlign=top;spacingLeft=4;spacingRight=4;overflow=hidden;rotatable=0;points=[[0,0.5],[1,0.5]];portConstraint=eastwest;" vertex="1" parent="68">
          <mxGeometry y="40" width="183" height="25" as="geometry" />
        </mxCell>
        <mxCell id="70" value="+Error" style="text;strokeColor=none;fillColor=none;align=left;verticalAlign=top;spacingLeft=4;spacingRight=4;overflow=hidden;rotatable=0;points=[[0,0.5],[1,0.5]];portConstraint=eastwest;" vertex="1" parent="68">
          <mxGeometry y="65" width="183" height="25" as="geometry" />
        </mxCell>
        <mxCell id="71" style="line;strokeWidth=1;fillColor=none;align=left;verticalAlign=middle;spacingTop=-1;spacingLeft=3;spacingRight=3;rotatable=0;labelPosition=right;points=[];portConstraint=eastwest;strokeColor=inherit;" vertex="1" parent="68">
          <mxGeometry y="90" width="183" height="8" as="geometry" />
        </mxCell>
        <mxCell id="72" value="1" style="edgeStyle=none;shape=connector;rounded=0;orthogonalLoop=1;jettySize=auto;html=1;entryX=0.5;entryY=0;entryDx=0;entryDy=0;strokeColor=default;align=center;verticalAlign=middle;fontFamily=Helvetica;fontSize=11;fontColor=default;labelBackgroundColor=default;endArrow=open;endFill=0;" edge="1" source="74" target="174" parent="1">
          <mxGeometry x="-0.5569" y="-14" relative="1" as="geometry">
            <mxPoint as="offset" />
          </mxGeometry>
        </mxCell>
        <mxCell id="73" value="*" style="edgeLabel;html=1;align=center;verticalAlign=middle;resizable=0;points=[];fontFamily=Helvetica;fontSize=11;fontColor=default;labelBackgroundColor=default;" connectable="0" vertex="1" parent="72">
          <mxGeometry x="0.4126" relative="1" as="geometry">
            <mxPoint x="-8" y="-3" as="offset" />
          </mxGeometry>
        </mxCell>
        <mxCell id="74" value="DataProcessorSession" style="swimlane;fontStyle=1;align=center;verticalAlign=top;childLayout=stackLayout;horizontal=1;startSize=24.18198529411765;horizontalStack=0;resizeParent=1;resizeParentMax=0;resizeLast=0;collapsible=0;marginBottom=0;fillColor=#d5e8d4;strokeColor=#82b366;" vertex="1" parent="1">
          <mxGeometry x="1770" y="2190" width="321" height="284.0019852941177" as="geometry" />
        </mxCell>
        <mxCell id="75" value="+String sessionID" style="text;strokeColor=none;fillColor=none;align=left;verticalAlign=top;spacingLeft=4;spacingRight=4;overflow=hidden;rotatable=0;points=[[0,0.5],[1,0.5]];portConstraint=eastwest;" vertex="1" parent="74">
          <mxGeometry y="24.18198529411765" width="321" height="24" as="geometry" />
        </mxCell>
        <mxCell id="76" value="+Config config" style="text;strokeColor=none;fillColor=none;align=left;verticalAlign=top;spacingLeft=4;spacingRight=4;overflow=hidden;rotatable=0;points=[[0,0.5],[1,0.5]];portConstraint=eastwest;" vertex="1" parent="74">
          <mxGeometry y="48.18198529411765" width="321" height="24" as="geometry" />
        </mxCell>
        <mxCell id="77" value="+Map&lt;String,String&gt; processingParameters" style="text;strokeColor=none;fillColor=none;align=left;verticalAlign=top;spacingLeft=4;spacingRight=4;overflow=hidden;rotatable=0;points=[[0,0.5],[1,0.5]];portConstraint=eastwest;" vertex="1" parent="74">
          <mxGeometry y="72.18198529411765" width="321" height="24" as="geometry" />
        </mxCell>
        <mxCell id="78" value="+DataProcessingStatus processingStatus" style="text;strokeColor=none;fillColor=none;align=left;verticalAlign=top;spacingLeft=4;spacingRight=4;overflow=hidden;rotatable=0;points=[[0,0.5],[1,0.5]];portConstraint=eastwest;" vertex="1" parent="74">
          <mxGeometry y="96.18198529411765" width="321" height="24" as="geometry" />
        </mxCell>
        <mxCell id="79" value="+String initiatedByUserID" style="text;strokeColor=none;fillColor=none;align=left;verticalAlign=top;spacingLeft=4;spacingRight=4;overflow=hidden;rotatable=0;points=[[0,0.5],[1,0.5]];portConstraint=eastwest;" vertex="1" parent="74">
          <mxGeometry y="120.18198529411765" width="321" height="24" as="geometry" />
        </mxCell>
        <mxCell id="80" value="+Map&lt;String, ExternalDB&gt; dataSources" style="text;strokeColor=none;fillColor=none;align=left;verticalAlign=top;spacingLeft=4;spacingRight=4;overflow=hidden;rotatable=0;points=[[0,0.5],[1,0.5]];portConstraint=eastwest;" vertex="1" parent="74">
          <mxGeometry y="144.18198529411765" width="321" height="24" as="geometry" />
        </mxCell>
        <mxCell id="81" value="+TempStorage tempStorage" style="text;strokeColor=none;fillColor=none;align=left;verticalAlign=top;spacingLeft=4;spacingRight=4;overflow=hidden;rotatable=0;points=[[0,0.5],[1,0.5]];portConstraint=eastwest;" vertex="1" parent="74">
          <mxGeometry y="168.18198529411765" width="321" height="24" as="geometry" />
        </mxCell>
        <mxCell id="82" style="line;strokeWidth=1;fillColor=none;align=left;verticalAlign=middle;spacingTop=-1;spacingLeft=3;spacingRight=3;rotatable=0;labelPosition=right;points=[];portConstraint=eastwest;strokeColor=inherit;" vertex="1" parent="74">
          <mxGeometry y="192.18198529411765" width="321" height="8" as="geometry" />
        </mxCell>
        <mxCell id="83" value="+DataProcessorSession(Config config, &#xa;Map&lt;String,String&gt; processingParameters, &#xa;String initiatedByUserID,&#xa;Map&lt;String, ExternalDB&gt; dataSources)" style="text;strokeColor=none;fillColor=none;align=left;verticalAlign=top;spacingLeft=4;spacingRight=4;overflow=hidden;rotatable=0;points=[[0,0.5],[1,0.5]];portConstraint=eastwest;" vertex="1" parent="74">
          <mxGeometry y="200.18198529411765" width="321" height="59.82" as="geometry" />
        </mxCell>
        <mxCell id="84" value="+startProcessing()" style="text;strokeColor=none;fillColor=none;align=left;verticalAlign=top;spacingLeft=4;spacingRight=4;overflow=hidden;rotatable=0;points=[[0,0.5],[1,0.5]];portConstraint=eastwest;" vertex="1" parent="74">
          <mxGeometry y="260.0019852941177" width="321" height="24" as="geometry" />
        </mxCell>
        <mxCell id="85" value="Step" style="swimlane;fontStyle=1;align=center;verticalAlign=top;childLayout=stackLayout;horizontal=1;startSize=30;horizontalStack=0;resizeParent=1;resizeParentMax=0;resizeLast=0;collapsible=0;marginBottom=0;fillColor=#d5e8d4;strokeColor=#82b366;" vertex="1" parent="1">
          <mxGeometry x="2140" y="2090" width="280" height="366" as="geometry" />
        </mxCell>
        <mxCell id="86" value="+String stepID" style="text;strokeColor=none;fillColor=none;align=left;verticalAlign=top;spacingLeft=4;spacingRight=4;overflow=hidden;rotatable=0;points=[[0,0.5],[1,0.5]];portConstraint=eastwest;" vertex="1" parent="85">
          <mxGeometry y="30" width="280" height="24" as="geometry" />
        </mxCell>
        <mxCell id="87" value="+String stepName" style="text;strokeColor=none;fillColor=none;align=left;verticalAlign=top;spacingLeft=4;spacingRight=4;overflow=hidden;rotatable=0;points=[[0,0.5],[1,0.5]];portConstraint=eastwest;" vertex="1" parent="85">
          <mxGeometry y="54" width="280" height="24" as="geometry" />
        </mxCell>
        <mxCell id="88" value="+StepType stepType" style="text;strokeColor=none;fillColor=none;align=left;verticalAlign=top;spacingLeft=4;spacingRight=4;overflow=hidden;rotatable=0;points=[[0,0.5],[1,0.5]];portConstraint=eastwest;fontStyle=0" vertex="1" parent="85">
          <mxGeometry y="78" width="280" height="24" as="geometry" />
        </mxCell>
        <mxCell id="89" value="+Map&lt;String,String&gt; parameters" style="text;strokeColor=none;fillColor=none;align=left;verticalAlign=top;spacingLeft=4;spacingRight=4;overflow=hidden;rotatable=0;points=[[0,0.5],[1,0.5]];portConstraint=eastwest;" vertex="1" parent="85">
          <mxGeometry y="102" width="280" height="24" as="geometry" />
        </mxCell>
        <mxCell id="90" value="+DataProccessor dataProcessor" style="text;strokeColor=none;fillColor=none;align=left;verticalAlign=top;spacingLeft=4;spacingRight=4;overflow=hidden;rotatable=0;points=[[0,0.5],[1,0.5]];portConstraint=eastwest;" vertex="1" parent="85">
          <mxGeometry y="126" width="280" height="24" as="geometry" />
        </mxCell>
        <mxCell id="91" value="+String nextStepID" style="text;strokeColor=none;fillColor=none;align=left;verticalAlign=top;spacingLeft=4;spacingRight=4;overflow=hidden;rotatable=0;points=[[0,0.5],[1,0.5]];portConstraint=eastwest;" vertex="1" parent="85">
          <mxGeometry y="150" width="280" height="24" as="geometry" />
        </mxCell>
        <mxCell id="92" value="+String prevStepID" style="text;strokeColor=none;fillColor=none;align=left;verticalAlign=top;spacingLeft=4;spacingRight=4;overflow=hidden;rotatable=0;points=[[0,0.5],[1,0.5]];portConstraint=eastwest;" vertex="1" parent="85">
          <mxGeometry y="174" width="280" height="24" as="geometry" />
        </mxCell>
        <mxCell id="93" style="line;strokeWidth=1;fillColor=none;align=left;verticalAlign=middle;spacingTop=-1;spacingLeft=3;spacingRight=3;rotatable=0;labelPosition=right;points=[];portConstraint=eastwest;strokeColor=inherit;" vertex="1" parent="85">
          <mxGeometry y="198" width="280" height="8" as="geometry" />
        </mxCell>
        <mxCell id="94" value="+Step(String prevStepID, String nextStepID, &#xa;String stepName, Map&lt;String,String&gt; params)" style="text;strokeColor=none;fillColor=none;align=left;verticalAlign=top;spacingLeft=4;spacingRight=4;overflow=hidden;rotatable=0;points=[[0,0.5],[1,0.5]];portConstraint=eastwest;" vertex="1" parent="85">
          <mxGeometry y="206" width="280" height="40" as="geometry" />
        </mxCell>
        <mxCell id="95" value="+rollbackStep(stepID)" style="text;strokeColor=none;fillColor=none;align=left;verticalAlign=top;spacingLeft=4;spacingRight=4;overflow=hidden;rotatable=0;points=[[0,0.5],[1,0.5]];portConstraint=eastwest;" vertex="1" parent="85">
          <mxGeometry y="246" width="280" height="24" as="geometry" />
        </mxCell>
        <mxCell id="96" value="+executeStep(stepID)" style="text;strokeColor=none;fillColor=none;align=left;verticalAlign=top;spacingLeft=4;spacingRight=4;overflow=hidden;rotatable=0;points=[[0,0.5],[1,0.5]];portConstraint=eastwest;" vertex="1" parent="85">
          <mxGeometry y="270" width="280" height="24" as="geometry" />
        </mxCell>
        <mxCell id="97" value="+skipStep(stepID)" style="text;strokeColor=none;fillColor=none;align=left;verticalAlign=top;spacingLeft=4;spacingRight=4;overflow=hidden;rotatable=0;points=[[0,0.5],[1,0.5]];portConstraint=eastwest;" vertex="1" parent="85">
          <mxGeometry y="294" width="280" height="24" as="geometry" />
        </mxCell>
        <mxCell id="98" value="+retryStep(stepID)" style="text;strokeColor=none;fillColor=none;align=left;verticalAlign=top;spacingLeft=4;spacingRight=4;overflow=hidden;rotatable=0;points=[[0,0.5],[1,0.5]];portConstraint=eastwest;" vertex="1" parent="85">
          <mxGeometry y="318" width="280" height="24" as="geometry" />
        </mxCell>
        <mxCell id="99" value="+executeStep()" style="text;strokeColor=none;fillColor=none;align=left;verticalAlign=top;spacingLeft=4;spacingRight=4;overflow=hidden;rotatable=0;points=[[0,0.5],[1,0.5]];portConstraint=eastwest;" vertex="1" parent="85">
          <mxGeometry y="342" width="280" height="24" as="geometry" />
        </mxCell>
        <mxCell id="100" value="&lt;&lt;enumeration&gt;&gt;&#xa;DataProcessingStatus" style="swimlane;fontStyle=1;align=center;verticalAlign=top;childLayout=stackLayout;horizontal=1;startSize=50;horizontalStack=0;resizeParent=1;resizeParentMax=0;resizeLast=0;collapsible=0;marginBottom=0;fillColor=#d5e8d4;strokeColor=#82b366;" vertex="1" parent="1">
          <mxGeometry x="1749" y="2830" width="251" height="183" as="geometry" />
        </mxCell>
        <mxCell id="101" value="+string Initial" style="text;strokeColor=none;fillColor=none;align=left;verticalAlign=top;spacingLeft=4;spacingRight=4;overflow=hidden;rotatable=0;points=[[0,0.5],[1,0.5]];portConstraint=eastwest;" vertex="1" parent="100">
          <mxGeometry y="50" width="251" height="25" as="geometry" />
        </mxCell>
        <mxCell id="102" value="+string Ready" style="text;strokeColor=none;fillColor=none;align=left;verticalAlign=top;spacingLeft=4;spacingRight=4;overflow=hidden;rotatable=0;points=[[0,0.5],[1,0.5]];portConstraint=eastwest;" vertex="1" parent="100">
          <mxGeometry y="75" width="251" height="25" as="geometry" />
        </mxCell>
        <mxCell id="103" value="+string Running" style="text;strokeColor=none;fillColor=none;align=left;verticalAlign=top;spacingLeft=4;spacingRight=4;overflow=hidden;rotatable=0;points=[[0,0.5],[1,0.5]];portConstraint=eastwest;" vertex="1" parent="100">
          <mxGeometry y="100" width="251" height="25" as="geometry" />
        </mxCell>
        <mxCell id="104" value="+string Success" style="text;strokeColor=none;fillColor=none;align=left;verticalAlign=top;spacingLeft=4;spacingRight=4;overflow=hidden;rotatable=0;points=[[0,0.5],[1,0.5]];portConstraint=eastwest;" vertex="1" parent="100">
          <mxGeometry y="125" width="251" height="25" as="geometry" />
        </mxCell>
        <mxCell id="105" value="+string Error" style="text;strokeColor=none;fillColor=none;align=left;verticalAlign=top;spacingLeft=4;spacingRight=4;overflow=hidden;rotatable=0;points=[[0,0.5],[1,0.5]];portConstraint=eastwest;" vertex="1" parent="100">
          <mxGeometry y="150" width="251" height="25" as="geometry" />
        </mxCell>
        <mxCell id="106" style="line;strokeWidth=1;fillColor=none;align=left;verticalAlign=middle;spacingTop=-1;spacingLeft=3;spacingRight=3;rotatable=0;labelPosition=right;points=[];portConstraint=eastwest;strokeColor=inherit;" vertex="1" parent="100">
          <mxGeometry y="175" width="251" height="8" as="geometry" />
        </mxCell>
        <mxCell id="107" value="DataMerger" style="swimlane;fontStyle=1;align=center;verticalAlign=top;childLayout=stackLayout;horizontal=1;startSize=24.522321428571427;horizontalStack=0;resizeParent=1;resizeParentMax=0;resizeLast=0;collapsible=0;marginBottom=0;fillColor=#d5e8d4;strokeColor=#82b366;" vertex="1" parent="1">
          <mxGeometry x="2560" y="2839.24" width="530" height="107.52232142857143" as="geometry" />
        </mxCell>
        <mxCell id="108" value="+String mergerID" style="text;strokeColor=none;fillColor=none;align=left;verticalAlign=top;spacingLeft=4;spacingRight=4;overflow=hidden;rotatable=0;points=[[0,0.5],[1,0.5]];portConstraint=eastwest;" vertex="1" parent="107">
          <mxGeometry y="24.522321428571427" width="530" height="25" as="geometry" />
        </mxCell>
        <mxCell id="109" style="line;strokeWidth=1;fillColor=none;align=left;verticalAlign=middle;spacingTop=-1;spacingLeft=3;spacingRight=3;rotatable=0;labelPosition=right;points=[];portConstraint=eastwest;strokeColor=inherit;" vertex="1" parent="107">
          <mxGeometry y="49.52232142857143" width="530" height="8" as="geometry" />
        </mxCell>
        <mxCell id="110" value="+DataMerger()" style="text;strokeColor=none;fillColor=none;align=left;verticalAlign=top;spacingLeft=4;spacingRight=4;overflow=hidden;rotatable=0;points=[[0,0.5],[1,0.5]];portConstraint=eastwest;" vertex="1" parent="107">
          <mxGeometry y="57.52232142857143" width="530" height="25" as="geometry" />
        </mxCell>
        <mxCell id="111" value="+mergeData(List&lt;String&gt; sourceDataIDs, String mergeCriteria, String conflictResolutionStrategy)" style="text;strokeColor=none;fillColor=none;align=left;verticalAlign=top;spacingLeft=4;spacingRight=4;overflow=hidden;rotatable=0;points=[[0,0.5],[1,0.5]];portConstraint=eastwest;" vertex="1" parent="107">
          <mxGeometry y="82.52232142857143" width="530" height="25" as="geometry" />
        </mxCell>
        <mxCell id="112" value="DataCleanser" style="swimlane;fontStyle=1;align=center;verticalAlign=top;childLayout=stackLayout;horizontal=1;startSize=24.28125;horizontalStack=0;resizeParent=1;resizeParentMax=0;resizeLast=0;collapsible=0;marginBottom=0;fillColor=#d5e8d4;strokeColor=#82b366;" vertex="1" parent="1">
          <mxGeometry x="2312" y="2839.24" width="220" height="128.28125" as="geometry" />
        </mxCell>
        <mxCell id="113" value="+String cleanserID" style="text;strokeColor=none;fillColor=none;align=left;verticalAlign=top;spacingLeft=4;spacingRight=4;overflow=hidden;rotatable=0;points=[[0,0.5],[1,0.5]];portConstraint=eastwest;" vertex="1" parent="112">
          <mxGeometry y="24.28125" width="220" height="24" as="geometry" />
        </mxCell>
        <mxCell id="114" value="+List&lt;String&gt; parameters" style="text;strokeColor=none;fillColor=none;align=left;verticalAlign=top;spacingLeft=4;spacingRight=4;overflow=hidden;rotatable=0;points=[[0,0.5],[1,0.5]];portConstraint=eastwest;" vertex="1" parent="112">
          <mxGeometry y="48.28125" width="220" height="24" as="geometry" />
        </mxCell>
        <mxCell id="115" style="line;strokeWidth=1;fillColor=none;align=left;verticalAlign=middle;spacingTop=-1;spacingLeft=3;spacingRight=3;rotatable=0;labelPosition=right;points=[];portConstraint=eastwest;strokeColor=inherit;" vertex="1" parent="112">
          <mxGeometry y="72.28125" width="220" height="8" as="geometry" />
        </mxCell>
        <mxCell id="116" value="+DataCleanser(List&lt;String&gt; params)" style="text;strokeColor=none;fillColor=none;align=left;verticalAlign=top;spacingLeft=4;spacingRight=4;overflow=hidden;rotatable=0;points=[[0,0.5],[1,0.5]];portConstraint=eastwest;" vertex="1" parent="112">
          <mxGeometry y="80.28125" width="220" height="24" as="geometry" />
        </mxCell>
        <mxCell id="117" value="+cleanseData(Column data)" style="text;strokeColor=none;fillColor=none;align=left;verticalAlign=top;spacingLeft=4;spacingRight=4;overflow=hidden;rotatable=0;points=[[0,0.5],[1,0.5]];portConstraint=eastwest;" vertex="1" parent="112">
          <mxGeometry y="104.28125" width="220" height="24" as="geometry" />
        </mxCell>
        <mxCell id="118" value="DataTransformer" style="swimlane;fontStyle=1;align=center;verticalAlign=top;childLayout=stackLayout;horizontal=1;startSize=24.522321428571427;horizontalStack=0;resizeParent=1;resizeParentMax=0;resizeLast=0;collapsible=0;marginBottom=0;fillColor=#d5e8d4;strokeColor=#82b366;" vertex="1" parent="1">
          <mxGeometry x="2575" y="2380" width="290" height="132.52232142857144" as="geometry" />
        </mxCell>
        <mxCell id="119" value="+String transformerID" style="text;strokeColor=none;fillColor=none;align=left;verticalAlign=top;spacingLeft=4;spacingRight=4;overflow=hidden;rotatable=0;points=[[0,0.5],[1,0.5]];portConstraint=eastwest;" vertex="1" parent="118">
          <mxGeometry y="24.522321428571427" width="290" height="25" as="geometry" />
        </mxCell>
        <mxCell id="120" value="+List&lt;String&gt; transformationRules" style="text;strokeColor=none;fillColor=none;align=left;verticalAlign=top;spacingLeft=4;spacingRight=4;overflow=hidden;rotatable=0;points=[[0,0.5],[1,0.5]];portConstraint=eastwest;" vertex="1" parent="118">
          <mxGeometry y="49.52232142857143" width="290" height="25" as="geometry" />
        </mxCell>
        <mxCell id="121" style="line;strokeWidth=1;fillColor=none;align=left;verticalAlign=middle;spacingTop=-1;spacingLeft=3;spacingRight=3;rotatable=0;labelPosition=right;points=[];portConstraint=eastwest;strokeColor=inherit;" vertex="1" parent="118">
          <mxGeometry y="74.52232142857143" width="290" height="8" as="geometry" />
        </mxCell>
        <mxCell id="122" value="+DataTransformer(List&lt;String&gt; transformationRules)" style="text;strokeColor=none;fillColor=none;align=left;verticalAlign=top;spacingLeft=4;spacingRight=4;overflow=hidden;rotatable=0;points=[[0,0.5],[1,0.5]];portConstraint=eastwest;" vertex="1" parent="118">
          <mxGeometry y="82.52232142857143" width="290" height="25" as="geometry" />
        </mxCell>
        <mxCell id="123" value="+transformData(Column data)" style="text;strokeColor=none;fillColor=none;align=left;verticalAlign=top;spacingLeft=4;spacingRight=4;overflow=hidden;rotatable=0;points=[[0,0.5],[1,0.5]];portConstraint=eastwest;" vertex="1" parent="118">
          <mxGeometry y="107.52232142857143" width="290" height="25" as="geometry" />
        </mxCell>
        <mxCell id="124" value="DataAnonymizer" style="swimlane;fontStyle=1;align=center;verticalAlign=top;childLayout=stackLayout;horizontal=1;startSize=24.522321428571427;horizontalStack=0;resizeParent=1;resizeParentMax=0;resizeLast=0;collapsible=0;marginBottom=0;fillColor=#d5e8d4;strokeColor=#82b366;" vertex="1" parent="1">
          <mxGeometry x="2530" y="2584" width="360" height="132.52232142857144" as="geometry" />
        </mxCell>
        <mxCell id="125" value="+String anonymizerID" style="text;strokeColor=none;fillColor=none;align=left;verticalAlign=top;spacingLeft=4;spacingRight=4;overflow=hidden;rotatable=0;points=[[0,0.5],[1,0.5]];portConstraint=eastwest;" vertex="1" parent="124">
          <mxGeometry y="24.522321428571427" width="360" height="25" as="geometry" />
        </mxCell>
        <mxCell id="126" value="+AnonymizationMethod anonymizationMethod" style="text;strokeColor=none;fillColor=none;align=left;verticalAlign=top;spacingLeft=4;spacingRight=4;overflow=hidden;rotatable=0;points=[[0,0.5],[1,0.5]];portConstraint=eastwest;" vertex="1" parent="124">
          <mxGeometry y="49.52232142857143" width="360" height="25" as="geometry" />
        </mxCell>
        <mxCell id="127" style="line;strokeWidth=1;fillColor=none;align=left;verticalAlign=middle;spacingTop=-1;spacingLeft=3;spacingRight=3;rotatable=0;labelPosition=right;points=[];portConstraint=eastwest;strokeColor=inherit;" vertex="1" parent="124">
          <mxGeometry y="74.52232142857143" width="360" height="8" as="geometry" />
        </mxCell>
        <mxCell id="128" value="+DataAnonymizer(AnonymizationMethod anonymizationMethod)" style="text;strokeColor=none;fillColor=none;align=left;verticalAlign=top;spacingLeft=4;spacingRight=4;overflow=hidden;rotatable=0;points=[[0,0.5],[1,0.5]];portConstraint=eastwest;" vertex="1" parent="124">
          <mxGeometry y="82.52232142857143" width="360" height="25" as="geometry" />
        </mxCell>
        <mxCell id="129" value="+anonymizeData(Column data)" style="text;strokeColor=none;fillColor=none;align=left;verticalAlign=top;spacingLeft=4;spacingRight=4;overflow=hidden;rotatable=0;points=[[0,0.5],[1,0.5]];portConstraint=eastwest;" vertex="1" parent="124">
          <mxGeometry y="107.52232142857143" width="360" height="25" as="geometry" />
        </mxCell>
        <mxCell id="130" value="DataQualityChecker" style="swimlane;fontStyle=1;align=center;verticalAlign=top;childLayout=stackLayout;horizontal=1;startSize=24.28125;horizontalStack=0;resizeParent=1;resizeParentMax=0;resizeLast=0;collapsible=0;marginBottom=0;fillColor=#d5e8d4;strokeColor=#82b366;" vertex="1" parent="1">
          <mxGeometry x="2040" y="2839.24" width="250" height="128.28125" as="geometry" />
        </mxCell>
        <mxCell id="131" value="+String dataQualityCheckerID" style="text;strokeColor=none;fillColor=none;align=left;verticalAlign=top;spacingLeft=4;spacingRight=4;overflow=hidden;rotatable=0;points=[[0,0.5],[1,0.5]];portConstraint=eastwest;fontStyle=0" vertex="1" parent="130">
          <mxGeometry y="24.28125" width="250" height="24" as="geometry" />
        </mxCell>
        <mxCell id="132" value="+List&lt;String&gt; parameters" style="text;strokeColor=none;fillColor=none;align=left;verticalAlign=top;spacingLeft=4;spacingRight=4;overflow=hidden;rotatable=0;points=[[0,0.5],[1,0.5]];portConstraint=eastwest;" vertex="1" parent="130">
          <mxGeometry y="48.28125" width="250" height="24" as="geometry" />
        </mxCell>
        <mxCell id="133" style="line;strokeWidth=1;fillColor=none;align=left;verticalAlign=middle;spacingTop=-1;spacingLeft=3;spacingRight=3;rotatable=0;labelPosition=right;points=[];portConstraint=eastwest;strokeColor=inherit;" vertex="1" parent="130">
          <mxGeometry y="72.28125" width="250" height="8" as="geometry" />
        </mxCell>
        <mxCell id="134" value="+DataQualityChecker(List&lt;String&gt; params)" style="text;strokeColor=none;fillColor=none;align=left;verticalAlign=top;spacingLeft=4;spacingRight=4;overflow=hidden;rotatable=0;points=[[0,0.5],[1,0.5]];portConstraint=eastwest;" vertex="1" parent="130">
          <mxGeometry y="80.28125" width="250" height="24" as="geometry" />
        </mxCell>
        <mxCell id="135" value="+checkQuality(Column data)" style="text;strokeColor=none;fillColor=none;align=left;verticalAlign=top;spacingLeft=4;spacingRight=4;overflow=hidden;rotatable=0;points=[[0,0.5],[1,0.5]];portConstraint=eastwest;" vertex="1" parent="130">
          <mxGeometry y="104.28125" width="250" height="24" as="geometry" />
        </mxCell>
        <mxCell id="136" value="submits requests" style="startArrow=none;endArrow=open;endSize=12;exitX=1;exitY=0.5;entryX=0.198;entryY=1.005;rounded=0;exitDx=0;exitDy=0;entryDx=0;entryDy=0;entryPerimeter=0;" edge="1" source="30" target="16" parent="1">
          <mxGeometry x="-0.0035" relative="1" as="geometry">
            <mxPoint as="offset" />
            <mxPoint x="1551.4499999999998" y="2242.0097500000006" as="targetPoint" />
          </mxGeometry>
        </mxCell>
        <mxCell id="137" value="1" style="edgeLabel;resizable=0;labelBackgroundColor=none;fontSize=12;align=right;verticalAlign=top;" vertex="1" parent="136">
          <mxGeometry x="-1" relative="1" as="geometry">
            <mxPoint x="17" y="-26" as="offset" />
          </mxGeometry>
        </mxCell>
        <mxCell id="138" value="*" style="edgeLabel;resizable=0;labelBackgroundColor=none;fontSize=12;align=left;verticalAlign=bottom;" vertex="1" parent="136">
          <mxGeometry x="1" relative="1" as="geometry">
            <mxPoint x="-12" y="29" as="offset" />
          </mxGeometry>
        </mxCell>
        <mxCell id="139" value="uses for access" style="startArrow=none;endArrow=open;endSize=12;rounded=0;entryX=0.477;entryY=0.95;entryDx=0;entryDy=0;entryPerimeter=0;endFill=0;" edge="1" source="29" target="25" parent="1">
          <mxGeometry relative="1" as="geometry">
            <mxPoint x="676.66" y="2400.98" as="sourcePoint" />
            <mxPoint x="1130.66" y="2150.95" as="targetPoint" />
          </mxGeometry>
        </mxCell>
        <mxCell id="140" value="1" style="edgeLabel;resizable=0;labelBackgroundColor=none;fontSize=12;align=right;verticalAlign=bottom;" vertex="1" parent="139">
          <mxGeometry x="-1" relative="1" as="geometry" />
        </mxCell>
        <mxCell id="141" value="0..1" style="edgeLabel;resizable=0;labelBackgroundColor=none;fontSize=12;align=left;verticalAlign=top;" vertex="1" parent="139">
          <mxGeometry x="1" relative="1" as="geometry">
            <mxPoint x="10" y="6" as="offset" />
          </mxGeometry>
        </mxCell>
        <mxCell id="142" value="has status" style="startArrow=diamond;endArrow=none;endSize=12;entryX=0.26;entryY=0;rounded=0;endFill=0;startFill=1;" edge="1" target="68" parent="1">
          <mxGeometry relative="1" as="geometry">
            <mxPoint x="2190" y="1770" as="sourcePoint" />
          </mxGeometry>
        </mxCell>
        <mxCell id="143" value="1" style="edgeLabel;resizable=0;labelBackgroundColor=none;fontSize=12;align=right;verticalAlign=top;" vertex="1" parent="142">
          <mxGeometry x="-1" relative="1" as="geometry">
            <mxPoint x="-6" y="-13" as="offset" />
          </mxGeometry>
        </mxCell>
        <mxCell id="144" value="1" style="edgeLabel;resizable=0;labelBackgroundColor=none;fontSize=12;align=left;verticalAlign=bottom;" vertex="1" parent="142">
          <mxGeometry x="1" relative="1" as="geometry">
            <mxPoint x="12" as="offset" />
          </mxGeometry>
        </mxCell>
        <mxCell id="145" value="uses" style="startArrow=diamond;endArrow=none;endSize=12;exitX=0.5;exitY=0;entryX=0.071;entryY=1.03;rounded=0;entryDx=0;entryDy=0;entryPerimeter=0;exitDx=0;exitDy=0;startFill=1;endFill=0;" edge="1" source="74" target="66" parent="1">
          <mxGeometry relative="1" as="geometry">
            <mxPoint x="1918.06" y="1789.99325" as="targetPoint" />
          </mxGeometry>
        </mxCell>
        <mxCell id="146" value="1" style="edgeLabel;html=1;align=center;verticalAlign=middle;resizable=0;points=[];fontFamily=Helvetica;fontSize=11;fontColor=default;labelBackgroundColor=default;" connectable="0" vertex="1" parent="145">
          <mxGeometry x="0.9117" y="-1" relative="1" as="geometry">
            <mxPoint x="9" y="-1" as="offset" />
          </mxGeometry>
        </mxCell>
        <mxCell id="147" value="1" style="edgeLabel;html=1;align=center;verticalAlign=middle;resizable=0;points=[];fontFamily=Helvetica;fontSize=11;fontColor=default;labelBackgroundColor=default;" connectable="0" vertex="1" parent="145">
          <mxGeometry x="-0.8904" y="-1" relative="1" as="geometry">
            <mxPoint x="-10" as="offset" />
          </mxGeometry>
        </mxCell>
        <mxCell id="148" value="" style="startArrow=diamond;endArrow=none;endSize=12;exitX=0.636;exitY=0.985;rounded=0;entryX=0.699;entryY=0.002;entryDx=0;entryDy=0;entryPerimeter=0;exitDx=0;exitDy=0;exitPerimeter=0;endFill=0;startFill=1;" edge="1" source="84" target="100" parent="1">
          <mxGeometry relative="1" as="geometry">
            <mxPoint x="1376" y="2767" as="targetPoint" />
            <mxPoint x="1959.3899999999999" y="2498.9139852941175" as="sourcePoint" />
          </mxGeometry>
        </mxCell>
        <mxCell id="149" value="1" style="edgeLabel;resizable=0;labelBackgroundColor=none;fontSize=12;align=right;verticalAlign=top;" vertex="1" parent="148">
          <mxGeometry x="-1" relative="1" as="geometry" />
        </mxCell>
        <mxCell id="150" value="*" style="edgeLabel;resizable=0;labelBackgroundColor=none;fontSize=12;align=left;verticalAlign=bottom;" vertex="1" parent="148">
          <mxGeometry x="1" relative="1" as="geometry" />
        </mxCell>
        <mxCell id="151" value="" style="startArrow=none;endArrow=block;endSize=12;exitX=0.635;exitY=-0.003;rounded=0;exitDx=0;exitDy=0;exitPerimeter=0;entryX=0.401;entryY=1.027;entryDx=0;entryDy=0;entryPerimeter=0;endFill=0;dashed=1;" edge="1" source="130" target="170" parent="1">
          <mxGeometry relative="1" as="geometry">
            <mxPoint x="2187" y="2671" as="targetPoint" />
          </mxGeometry>
        </mxCell>
        <mxCell id="152" value="" style="startArrow=none;endArrow=diamond;endSize=12;rounded=0;entryX=0.472;entryY=1.012;entryDx=0;entryDy=0;entryPerimeter=0;exitX=0.548;exitY=0.003;exitDx=0;exitDy=0;exitPerimeter=0;endFill=1;" edge="1" source="167" target="99" parent="1">
          <mxGeometry x="-0.0173" relative="1" as="geometry">
            <mxPoint x="2209.0000000000005" y="2477.3399999999997" as="sourcePoint" />
            <mxPoint x="2241" y="2766" as="targetPoint" />
            <mxPoint as="offset" />
          </mxGeometry>
        </mxCell>
        <mxCell id="153" value="1" style="edgeLabel;resizable=0;labelBackgroundColor=none;fontSize=12;align=right;verticalAlign=top;" vertex="1" parent="152">
          <mxGeometry x="1" relative="1" as="geometry">
            <mxPoint x="-11" y="11" as="offset" />
          </mxGeometry>
        </mxCell>
        <mxCell id="154" value="1" style="edgeLabel;html=1;align=center;verticalAlign=middle;resizable=0;points=[];fontFamily=Helvetica;fontSize=11;fontColor=default;labelBackgroundColor=default;" connectable="0" vertex="1" parent="152">
          <mxGeometry x="-0.8657" y="-2" relative="1" as="geometry">
            <mxPoint x="10" y="-8" as="offset" />
          </mxGeometry>
        </mxCell>
        <mxCell id="155" value="" style="startArrow=none;endArrow=block;endSize=12;exitX=0;exitY=0.5;entryX=1;entryY=0.25;rounded=0;exitDx=0;exitDy=0;entryDx=0;entryDy=0;endFill=0;dashed=1;" edge="1" target="167" parent="1">
          <mxGeometry x="0.0023" relative="1" as="geometry">
            <mxPoint x="2575" y="2442.022321428571" as="sourcePoint" />
            <mxPoint x="2289.78" y="2477.3399999999997" as="targetPoint" />
            <mxPoint as="offset" />
          </mxGeometry>
        </mxCell>
        <mxCell id="156" value="" style="startArrow=none;endArrow=block;endSize=12;rounded=0;exitX=0;exitY=0.5;exitDx=0;exitDy=0;entryX=1.013;entryY=0.742;entryDx=0;entryDy=0;entryPerimeter=0;endFill=0;dashed=1;" edge="1" source="126" target="168" parent="1">
          <mxGeometry relative="1" as="geometry">
            <mxPoint x="2575" y="2646.0223214285716" as="sourcePoint" />
            <mxPoint x="2300.0000000000005" y="2630.9999999999995" as="targetPoint" />
          </mxGeometry>
        </mxCell>
        <mxCell id="157" style="rounded=0;orthogonalLoop=1;jettySize=auto;html=1;endArrow=open;endFill=0;exitX=0.821;exitY=1.07;exitDx=0;exitDy=0;exitPerimeter=0;entryX=0.226;entryY=0.004;entryDx=0;entryDy=0;entryPerimeter=0;" edge="1" source="2" target="74" parent="1">
          <mxGeometry relative="1" as="geometry">
            <mxPoint x="1739.5500000000002" y="1883.71175" as="sourcePoint" />
            <mxPoint x="1820" y="2210" as="targetPoint" />
          </mxGeometry>
        </mxCell>
        <mxCell id="158" value="*" style="edgeLabel;html=1;align=center;verticalAlign=middle;resizable=0;points=[];fontFamily=Helvetica;fontSize=11;fontColor=default;labelBackgroundColor=default;" connectable="0" vertex="1" parent="157">
          <mxGeometry x="0.3724" relative="1" as="geometry">
            <mxPoint x="10" y="67" as="offset" />
          </mxGeometry>
        </mxCell>
        <mxCell id="159" value="initialise" style="edgeLabel;html=1;align=center;verticalAlign=middle;resizable=0;points=[];fontFamily=Helvetica;fontSize=11;fontColor=default;labelBackgroundColor=default;" connectable="0" vertex="1" parent="157">
          <mxGeometry x="-0.0892" y="-2" relative="1" as="geometry">
            <mxPoint y="-11" as="offset" />
          </mxGeometry>
        </mxCell>
        <mxCell id="160" value="1" style="edgeLabel;html=1;align=center;verticalAlign=middle;resizable=0;points=[];fontFamily=Helvetica;fontSize=11;fontColor=default;labelBackgroundColor=default;" connectable="0" vertex="1" parent="157">
          <mxGeometry x="-0.7273" relative="1" as="geometry">
            <mxPoint x="5" y="-16" as="offset" />
          </mxGeometry>
        </mxCell>
        <mxCell id="161" value="" style="edgeStyle=none;shape=connector;rounded=0;orthogonalLoop=1;jettySize=auto;html=1;strokeColor=default;align=center;verticalAlign=middle;fontFamily=Helvetica;fontSize=11;fontColor=default;labelBackgroundColor=default;endArrow=block;endFill=0;entryX=0.905;entryY=0.89;entryDx=0;entryDy=0;entryPerimeter=0;dashed=1;exitX=0.092;exitY=-0.001;exitDx=0;exitDy=0;exitPerimeter=0;" edge="1" source="107" target="170" parent="1">
          <mxGeometry relative="1" as="geometry">
            <mxPoint x="2580" y="2830" as="sourcePoint" />
            <mxPoint x="2247" y="2670" as="targetPoint" />
          </mxGeometry>
        </mxCell>
        <mxCell id="162" style="edgeStyle=none;shape=connector;rounded=0;orthogonalLoop=1;jettySize=auto;html=1;strokeColor=default;align=center;verticalAlign=middle;fontFamily=Helvetica;fontSize=11;fontColor=default;labelBackgroundColor=default;endArrow=none;endFill=0;exitX=1;exitY=0.5;exitDx=0;exitDy=0;startArrow=open;startFill=0;fontStyle=4;entryX=-0.002;entryY=0.881;entryDx=0;entryDy=0;entryPerimeter=0;" edge="1" source="32" target="79" parent="1">
          <mxGeometry relative="1" as="geometry">
            <mxPoint x="1740" y="2470" as="targetPoint" />
            <mxPoint x="1318.8519999999999" y="2478.8692499999997" as="sourcePoint" />
          </mxGeometry>
        </mxCell>
        <mxCell id="163" value="*" style="edgeLabel;html=1;align=center;verticalAlign=middle;resizable=0;points=[];fontFamily=Helvetica;fontSize=11;fontColor=default;labelBackgroundColor=default;" connectable="0" vertex="1" parent="162">
          <mxGeometry x="-0.9259" y="-1" relative="1" as="geometry">
            <mxPoint x="1" y="18" as="offset" />
          </mxGeometry>
        </mxCell>
        <mxCell id="164" value="1" style="edgeLabel;html=1;align=center;verticalAlign=middle;resizable=0;points=[];fontFamily=Helvetica;fontSize=11;fontColor=default;labelBackgroundColor=default;" connectable="0" vertex="1" parent="162">
          <mxGeometry x="0.9016" y="2" relative="1" as="geometry">
            <mxPoint x="14" y="-23" as="offset" />
          </mxGeometry>
        </mxCell>
        <mxCell id="165" value="get data source" style="edgeLabel;html=1;align=center;verticalAlign=middle;resizable=0;points=[];fontFamily=Helvetica;fontSize=11;fontColor=default;labelBackgroundColor=default;" connectable="0" vertex="1" parent="162">
          <mxGeometry x="-0.1719" y="-5" relative="1" as="geometry">
            <mxPoint x="1" as="offset" />
          </mxGeometry>
        </mxCell>
        <mxCell id="166" value="" style="startArrow=none;endArrow=block;endSize=12;rounded=0;entryX=0.495;entryY=1.055;entryDx=0;entryDy=0;entryPerimeter=0;exitX=0.5;exitY=0;exitDx=0;exitDy=0;endFill=0;dashed=1;" edge="1" source="112" target="170" parent="1">
          <mxGeometry x="-0.0002" relative="1" as="geometry">
            <mxPoint x="2610" y="2864" as="sourcePoint" />
            <mxPoint x="2240.5" y="2669.1420000000003" as="targetPoint" />
            <mxPoint as="offset" />
          </mxGeometry>
        </mxCell>
        <mxCell id="167" value="&lt;div&gt;&amp;lt;&amp;lt;interface&amp;gt;&amp;gt;&lt;/div&gt;DataProcessor" style="swimlane;fontStyle=1;align=center;verticalAlign=top;childLayout=stackLayout;horizontal=1;startSize=40;horizontalStack=0;resizeParent=1;resizeParentMax=0;resizeLast=0;collapsible=1;marginBottom=0;whiteSpace=wrap;html=1;fontFamily=Helvetica;fontSize=11;labelBackgroundColor=default;fillColor=#d5e8d4;strokeColor=#82b366;" vertex="1" parent="1">
          <mxGeometry x="2122" y="2552.52" width="290" height="120" as="geometry" />
        </mxCell>
        <mxCell id="168" value="&lt;span style=&quot;caret-color: rgb(0, 0, 0); color: rgb(0, 0, 0); font-family: Helvetica; font-size: 12px; font-style: normal; font-variant-caps: normal; font-weight: 400; letter-spacing: normal; orphans: auto; text-align: left; text-indent: 0px; text-transform: none; white-space: nowrap; widows: auto; word-spacing: 0px; -webkit-text-stroke-width: 0px; background-color: rgb(251, 251, 251); text-decoration: none; display: inline !important; float: none;&quot;&gt;+Map&amp;lt;String,String&amp;gt; parameters&lt;/span&gt;" style="text;strokeColor=none;fillColor=none;align=left;verticalAlign=top;spacingLeft=4;spacingRight=4;overflow=hidden;rotatable=0;points=[[0,0.5],[1,0.5]];portConstraint=eastwest;whiteSpace=wrap;html=1;fontFamily=Helvetica;fontSize=11;fontColor=default;labelBackgroundColor=default;" vertex="1" parent="167">
          <mxGeometry y="40" width="290" height="26" as="geometry" />
        </mxCell>
        <mxCell id="169" value="" style="line;strokeWidth=1;fillColor=none;align=left;verticalAlign=middle;spacingTop=-1;spacingLeft=3;spacingRight=3;rotatable=0;labelPosition=right;points=[];portConstraint=eastwest;strokeColor=inherit;fontFamily=Helvetica;fontSize=11;fontColor=default;labelBackgroundColor=default;" vertex="1" parent="167">
          <mxGeometry y="66" width="290" height="8" as="geometry" />
        </mxCell>
        <mxCell id="170" value="&lt;div&gt;+&amp;nbsp;&lt;span style=&quot;font-weight: 700; text-align: center;&quot;&gt;DataProcessor(&lt;/span&gt;&lt;span style=&quot;background-color: rgb(251, 251, 251); font-size: 12px; caret-color: rgb(0, 0, 0); text-wrap-mode: nowrap;&quot;&gt;Map&amp;lt;String,String&amp;gt; parameters&lt;/span&gt;&lt;span style=&quot;font-weight: 700; text-align: center;&quot;&gt;)&lt;/span&gt;&lt;/div&gt;+ perform(Column[])" style="text;strokeColor=none;fillColor=none;align=left;verticalAlign=top;spacingLeft=4;spacingRight=4;overflow=hidden;rotatable=0;points=[[0,0.5],[1,0.5]];portConstraint=eastwest;whiteSpace=wrap;html=1;fontFamily=Helvetica;fontSize=11;fontColor=default;labelBackgroundColor=default;" vertex="1" parent="167">
          <mxGeometry y="74" width="290" height="46" as="geometry" />
        </mxCell>
        <mxCell id="171" style="edgeStyle=none;shape=connector;rounded=0;orthogonalLoop=1;jettySize=auto;html=1;strokeColor=default;align=center;verticalAlign=middle;fontFamily=Helvetica;fontSize=11;fontColor=default;labelBackgroundColor=default;endArrow=diamond;endFill=1;exitX=0.25;exitY=0;exitDx=0;exitDy=0;entryX=0.547;entryY=1.006;entryDx=0;entryDy=0;entryPerimeter=0;" edge="1" source="85" target="66" parent="1">
          <mxGeometry relative="1" as="geometry">
            <mxPoint x="2200" y="2080" as="sourcePoint" />
            <mxPoint x="2073.7084179104477" y="1790.28125" as="targetPoint" />
          </mxGeometry>
        </mxCell>
        <mxCell id="172" value="1" style="edgeLabel;html=1;align=center;verticalAlign=middle;resizable=0;points=[];fontFamily=Helvetica;fontSize=11;fontColor=default;labelBackgroundColor=default;" connectable="0" vertex="1" parent="171">
          <mxGeometry x="0.9125" y="-2" relative="1" as="geometry">
            <mxPoint x="15" y="7" as="offset" />
          </mxGeometry>
        </mxCell>
        <mxCell id="173" value="*" style="edgeLabel;html=1;align=center;verticalAlign=middle;resizable=0;points=[];fontFamily=Helvetica;fontSize=11;fontColor=default;labelBackgroundColor=default;" connectable="0" vertex="1" parent="171">
          <mxGeometry x="-0.8297" y="1" relative="1" as="geometry">
            <mxPoint x="-13" as="offset" />
          </mxGeometry>
        </mxCell>
        <mxCell id="174" value="TempStorage" style="swimlane;fontStyle=1;align=center;verticalAlign=top;childLayout=stackLayout;horizontal=1;startSize=26;horizontalStack=0;resizeParent=1;resizeParentMax=0;resizeLast=0;collapsible=1;marginBottom=0;whiteSpace=wrap;html=1;fontFamily=Helvetica;fontSize=11;labelBackgroundColor=default;fillColor=#d5e8d4;strokeColor=#82b366;" vertex="1" parent="1">
          <mxGeometry x="1637" y="2610" width="200" height="190" as="geometry" />
        </mxCell>
        <mxCell id="175" value="+ String tempStorageID&lt;div&gt;&lt;br&gt;&lt;/div&gt;" style="text;strokeColor=none;fillColor=none;align=left;verticalAlign=top;spacingLeft=4;spacingRight=4;overflow=hidden;rotatable=0;points=[[0,0.5],[1,0.5]];portConstraint=eastwest;whiteSpace=wrap;html=1;fontFamily=Helvetica;fontSize=11;fontColor=default;labelBackgroundColor=default;" vertex="1" parent="174">
          <mxGeometry y="26" width="200" height="26" as="geometry" />
        </mxCell>
        <mxCell id="176" value="&lt;div&gt;&lt;span style=&quot;font-size: 12px; text-wrap-mode: nowrap; background-color: rgb(251, 251, 251);&quot;&gt;+ Scheme scheme&lt;/span&gt;&lt;/div&gt;" style="text;strokeColor=none;fillColor=none;align=left;verticalAlign=top;spacingLeft=4;spacingRight=4;overflow=hidden;rotatable=0;points=[[0,0.5],[1,0.5]];portConstraint=eastwest;whiteSpace=wrap;html=1;fontFamily=Helvetica;fontSize=11;fontColor=default;labelBackgroundColor=default;" vertex="1" parent="174">
          <mxGeometry y="52" width="200" height="26" as="geometry" />
        </mxCell>
        <mxCell id="177" value="" style="line;strokeWidth=1;fillColor=none;align=left;verticalAlign=middle;spacingTop=-1;spacingLeft=3;spacingRight=3;rotatable=0;labelPosition=right;points=[];portConstraint=eastwest;strokeColor=inherit;fontFamily=Helvetica;fontSize=11;fontColor=default;labelBackgroundColor=default;" vertex="1" parent="174">
          <mxGeometry y="78" width="200" height="8" as="geometry" />
        </mxCell>
        <mxCell id="178" value="+ TempStorage(&lt;span style=&quot;font-size: 12px; text-wrap-mode: nowrap; background-color: rgb(251, 251, 251);&quot;&gt;Scheme&lt;/span&gt;&amp;nbsp;scheme)" style="text;strokeColor=none;fillColor=none;align=left;verticalAlign=top;spacingLeft=4;spacingRight=4;overflow=hidden;rotatable=0;points=[[0,0.5],[1,0.5]];portConstraint=eastwest;whiteSpace=wrap;html=1;fontFamily=Helvetica;fontSize=11;fontColor=default;labelBackgroundColor=default;" vertex="1" parent="174">
          <mxGeometry y="86" width="200" height="26" as="geometry" />
        </mxCell>
        <mxCell id="179" value="+ readTempStorage()" style="text;strokeColor=none;fillColor=none;align=left;verticalAlign=top;spacingLeft=4;spacingRight=4;overflow=hidden;rotatable=0;points=[[0,0.5],[1,0.5]];portConstraint=eastwest;whiteSpace=wrap;html=1;fontFamily=Helvetica;fontSize=11;fontColor=default;labelBackgroundColor=default;" vertex="1" parent="174">
          <mxGeometry y="112" width="200" height="26" as="geometry" />
        </mxCell>
        <mxCell id="180" value="+ readColumn(columnID)" style="text;strokeColor=none;fillColor=none;align=left;verticalAlign=top;spacingLeft=4;spacingRight=4;overflow=hidden;rotatable=0;points=[[0,0.5],[1,0.5]];portConstraint=eastwest;whiteSpace=wrap;html=1;fontFamily=Helvetica;fontSize=11;fontColor=default;labelBackgroundColor=default;" vertex="1" parent="174">
          <mxGeometry y="138" width="200" height="26" as="geometry" />
        </mxCell>
        <mxCell id="181" value="+ updateColumn(columnID)" style="text;strokeColor=none;fillColor=none;align=left;verticalAlign=top;spacingLeft=4;spacingRight=4;overflow=hidden;rotatable=0;points=[[0,0.5],[1,0.5]];portConstraint=eastwest;whiteSpace=wrap;html=1;fontFamily=Helvetica;fontSize=11;fontColor=default;labelBackgroundColor=default;" vertex="1" parent="174">
          <mxGeometry y="164" width="200" height="26" as="geometry" />
        </mxCell>
        <mxCell id="182" value="&lt;&lt;enumeration&gt;&gt;&#xa;DataType" style="swimlane;fontStyle=1;align=center;verticalAlign=top;childLayout=stackLayout;horizontal=1;startSize=50;horizontalStack=0;resizeParent=1;resizeParentMax=0;resizeLast=0;collapsible=0;marginBottom=0;fillColor=#d5e8d4;strokeColor=#82b366;" vertex="1" parent="1">
          <mxGeometry x="1329.16" y="3021.32" width="251" height="133" as="geometry" />
        </mxCell>
        <mxCell id="183" value="+string Integer" style="text;strokeColor=none;fillColor=none;align=left;verticalAlign=top;spacingLeft=4;spacingRight=4;overflow=hidden;rotatable=0;points=[[0,0.5],[1,0.5]];portConstraint=eastwest;" vertex="1" parent="182">
          <mxGeometry y="50" width="251" height="25" as="geometry" />
        </mxCell>
        <mxCell id="184" value="+string Float" style="text;strokeColor=none;fillColor=none;align=left;verticalAlign=top;spacingLeft=4;spacingRight=4;overflow=hidden;rotatable=0;points=[[0,0.5],[1,0.5]];portConstraint=eastwest;" vertex="1" parent="182">
          <mxGeometry y="75" width="251" height="25" as="geometry" />
        </mxCell>
        <mxCell id="185" value="+string String" style="text;strokeColor=none;fillColor=none;align=left;verticalAlign=top;spacingLeft=4;spacingRight=4;overflow=hidden;rotatable=0;points=[[0,0.5],[1,0.5]];portConstraint=eastwest;" vertex="1" parent="182">
          <mxGeometry y="100" width="251" height="25" as="geometry" />
        </mxCell>
        <mxCell id="186" style="line;strokeWidth=1;fillColor=none;align=left;verticalAlign=middle;spacingTop=-1;spacingLeft=3;spacingRight=3;rotatable=0;labelPosition=right;points=[];portConstraint=eastwest;strokeColor=inherit;" vertex="1" parent="182">
          <mxGeometry y="125" width="251" height="8" as="geometry" />
        </mxCell>
        <mxCell id="187" style="rounded=0;orthogonalLoop=1;jettySize=auto;html=1;entryX=0.535;entryY=0.967;entryDx=0;entryDy=0;entryPerimeter=0;endArrow=diamondThin;endFill=1;" edge="1" source="182" target="58" parent="1">
          <mxGeometry relative="1" as="geometry">
            <mxPoint x="1454.6599999999999" y="2932.79575" as="targetPoint" />
          </mxGeometry>
        </mxCell>
        <mxCell id="188" value="1" style="edgeLabel;html=1;align=center;verticalAlign=middle;resizable=0;points=[];" connectable="0" vertex="1" parent="187">
          <mxGeometry x="0.7785" y="-1" relative="1" as="geometry">
            <mxPoint x="7" y="8" as="offset" />
          </mxGeometry>
        </mxCell>
        <mxCell id="189" value="1" style="edgeLabel;html=1;align=center;verticalAlign=middle;resizable=0;points=[];" connectable="0" vertex="1" parent="187">
          <mxGeometry x="-0.6237" relative="1" as="geometry">
            <mxPoint x="8" as="offset" />
          </mxGeometry>
        </mxCell>
        <mxCell id="190" value="Pan: external DB connection request activity diagram&amp;nbsp;" style="shape=note;size=24;whiteSpace=wrap;html=1;fontFamily=Helvetica;fontSize=11;fontColor=default;labelBackgroundColor=default;" vertex="1" parent="1">
          <mxGeometry x="705" y="2230" width="210" height="80" as="geometry" />
        </mxCell>
        <mxCell id="191" value="George Login activity diagram" style="shape=note;size=20;whiteSpace=wrap;html=1;fontFamily=Helvetica;fontSize=11;fontColor=default;labelBackgroundColor=default;" vertex="1" parent="1">
          <mxGeometry x="1460" y="1754" width="100" height="100" as="geometry" />
        </mxCell>
        <mxCell id="192" value="Sergey: Start processing&amp;nbsp;" style="shape=note;size=20;whiteSpace=wrap;html=1;fontFamily=Helvetica;fontSize=11;fontColor=default;labelBackgroundColor=default;" vertex="1" parent="1">
          <mxGeometry x="1640" y="2380" width="100" height="100" as="geometry" />
        </mxCell>
        <mxCell id="193" value="Igor: Performing step" style="shape=note;size=20;whiteSpace=wrap;html=1;fontFamily=Helvetica;fontSize=11;fontColor=default;labelBackgroundColor=default;" vertex="1" parent="1">
          <mxGeometry x="2550" y="2250.0000000000005" width="100" height="100" as="geometry" />
        </mxCell>
        <mxCell id="194" value="Alex: Config validation&amp;nbsp;" style="shape=note;size=20;whiteSpace=wrap;html=1;fontFamily=Helvetica;fontSize=11;fontColor=default;labelBackgroundColor=default;" vertex="1" parent="1">
          <mxGeometry x="2260" y="1654" width="100" height="100" as="geometry" />
        </mxCell>
        <mxCell id="195" style="rounded=0;orthogonalLoop=1;jettySize=auto;html=1;entryX=-0.013;entryY=0.111;entryDx=0;entryDy=0;entryPerimeter=0;endArrow=diamond;endFill=1;" edge="1" source="43" target="174" parent="1">
          <mxGeometry relative="1" as="geometry" />
        </mxCell>
        <mxCell id="196" value="&lt;&lt;enumeration&gt;&gt;&#xa;StepType" style="swimlane;fontStyle=1;align=center;verticalAlign=top;childLayout=stackLayout;horizontal=1;startSize=50;horizontalStack=0;resizeParent=1;resizeParentMax=0;resizeLast=0;collapsible=0;marginBottom=0;fillColor=#d5e8d4;strokeColor=#82b366;" vertex="1" parent="1">
          <mxGeometry x="2510" y="1854" width="251" height="175" as="geometry" />
        </mxCell>
        <mxCell id="197" value="+string Transform" style="text;strokeColor=none;fillColor=none;align=left;verticalAlign=top;spacingLeft=4;spacingRight=4;overflow=hidden;rotatable=0;points=[[0,0.5],[1,0.5]];portConstraint=eastwest;" vertex="1" parent="196">
          <mxGeometry y="50" width="251" height="25" as="geometry" />
        </mxCell>
        <mxCell id="198" value="+string Anonymize" style="text;strokeColor=none;fillColor=none;align=left;verticalAlign=top;spacingLeft=4;spacingRight=4;overflow=hidden;rotatable=0;points=[[0,0.5],[1,0.5]];portConstraint=eastwest;" vertex="1" parent="196">
          <mxGeometry y="75" width="251" height="25" as="geometry" />
        </mxCell>
        <mxCell id="199" value="+string Merge" style="text;strokeColor=none;fillColor=none;align=left;verticalAlign=top;spacingLeft=4;spacingRight=4;overflow=hidden;rotatable=0;points=[[0,0.5],[1,0.5]];portConstraint=eastwest;" vertex="1" parent="196">
          <mxGeometry y="100" width="251" height="25" as="geometry" />
        </mxCell>
        <mxCell id="200" value="+string Cleanse" style="text;strokeColor=none;fillColor=none;align=left;verticalAlign=top;spacingLeft=4;spacingRight=4;overflow=hidden;rotatable=0;points=[[0,0.5],[1,0.5]];portConstraint=eastwest;" vertex="1" parent="196">
          <mxGeometry y="125" width="251" height="25" as="geometry" />
        </mxCell>
        <mxCell id="201" value="+string CheckQuality" style="text;strokeColor=none;fillColor=none;align=left;verticalAlign=top;spacingLeft=4;spacingRight=4;overflow=hidden;rotatable=0;points=[[0,0.5],[1,0.5]];portConstraint=eastwest;" vertex="1" parent="196">
          <mxGeometry y="150" width="251" height="25" as="geometry" />
        </mxCell>
        <mxCell id="202" style="rounded=0;orthogonalLoop=1;jettySize=auto;html=1;entryX=0.14;entryY=1.169;entryDx=0;entryDy=0;entryPerimeter=0;endArrow=open;endFill=0;" edge="1" source="11" parent="1">
          <mxGeometry relative="1" as="geometry">
            <mxPoint x="1645.1999999999998" y="1883.99975" as="targetPoint" />
          </mxGeometry>
        </mxCell>
        <mxCell id="203" value="1" style="edgeLabel;html=1;align=center;verticalAlign=middle;resizable=0;points=[];fontFamily=Helvetica;fontSize=11;fontColor=default;labelBackgroundColor=default;" connectable="0" vertex="1" parent="202">
          <mxGeometry x="0.8579" y="-1" relative="1" as="geometry">
            <mxPoint as="offset" />
          </mxGeometry>
        </mxCell>
        <mxCell id="204" value="1" style="edgeLabel;html=1;align=center;verticalAlign=middle;resizable=0;points=[];fontFamily=Helvetica;fontSize=11;fontColor=default;labelBackgroundColor=default;" connectable="0" vertex="1" parent="202">
          <mxGeometry x="-0.8032" y="1" relative="1" as="geometry">
            <mxPoint as="offset" />
          </mxGeometry>
        </mxCell>
        <mxCell id="205" style="rounded=0;orthogonalLoop=1;jettySize=auto;html=1;entryX=1;entryY=0.06;entryDx=0;entryDy=0;entryPerimeter=0;endArrow=diamondThin;endFill=1;" edge="1" source="196" target="85" parent="1">
          <mxGeometry relative="1" as="geometry" />
        </mxCell>
        <mxCell id="206" value="1" style="edgeLabel;html=1;align=center;verticalAlign=middle;resizable=0;points=[];" connectable="0" vertex="1" parent="205">
          <mxGeometry x="-0.8344" y="-1" relative="1" as="geometry">
            <mxPoint as="offset" />
          </mxGeometry>
        </mxCell>
        <mxCell id="207" value="1" style="edgeLabel;html=1;align=center;verticalAlign=middle;resizable=0;points=[];" connectable="0" vertex="1" parent="205">
          <mxGeometry x="0.6133" y="2" relative="1" as="geometry">
            <mxPoint as="offset" />
          </mxGeometry>
        </mxCell>
        <mxCell id="208" style="rounded=0;orthogonalLoop=1;jettySize=auto;html=1;entryX=0.002;entryY=0.738;entryDx=0;entryDy=0;entryPerimeter=0;" edge="1" source="2" target="67" parent="1">
          <mxGeometry relative="1" as="geometry" />
        </mxCell>
        <mxCell id="209" value="&lt;&lt;enumeration&gt;&gt;&#xa;AnonymizationMethod" style="swimlane;fontStyle=1;align=center;verticalAlign=top;childLayout=stackLayout;horizontal=1;startSize=50;horizontalStack=0;resizeParent=1;resizeParentMax=0;resizeLast=0;collapsible=0;marginBottom=0;fillColor=#d5e8d4;strokeColor=#82b366;" vertex="1" parent="1">
          <mxGeometry x="3057" y="2537.52" width="251" height="150" as="geometry" />
        </mxCell>
        <mxCell id="210" value="+string HidePhoneNum" style="text;strokeColor=none;fillColor=none;align=left;verticalAlign=top;spacingLeft=4;spacingRight=4;overflow=hidden;rotatable=0;points=[[0,0.5],[1,0.5]];portConstraint=eastwest;" vertex="1" parent="209">
          <mxGeometry y="50" width="251" height="25" as="geometry" />
        </mxCell>
        <mxCell id="211" value="+string HideEMail" style="text;strokeColor=none;fillColor=none;align=left;verticalAlign=top;spacingLeft=4;spacingRight=4;overflow=hidden;rotatable=0;points=[[0,0.5],[1,0.5]];portConstraint=eastwest;" vertex="1" parent="209">
          <mxGeometry y="75" width="251" height="25" as="geometry" />
        </mxCell>
        <mxCell id="212" value="+string HideRandomSymbols" style="text;strokeColor=none;fillColor=none;align=left;verticalAlign=top;spacingLeft=4;spacingRight=4;overflow=hidden;rotatable=0;points=[[0,0.5],[1,0.5]];portConstraint=eastwest;" vertex="1" parent="209">
          <mxGeometry y="100" width="251" height="25" as="geometry" />
        </mxCell>
        <mxCell id="213" value="+string ApplyHash" style="text;strokeColor=none;fillColor=none;align=left;verticalAlign=top;spacingLeft=4;spacingRight=4;overflow=hidden;rotatable=0;points=[[0,0.5],[1,0.5]];portConstraint=eastwest;" vertex="1" parent="209">
          <mxGeometry y="125" width="251" height="25" as="geometry" />
        </mxCell>
        <mxCell id="214" style="rounded=0;orthogonalLoop=1;jettySize=auto;html=1;entryX=1.008;entryY=0.745;entryDx=0;entryDy=0;entryPerimeter=0;exitX=0;exitY=0.25;exitDx=0;exitDy=0;endArrow=diamond;endFill=1;" edge="1" source="209" target="126" parent="1">
          <mxGeometry relative="1" as="geometry">
            <Array as="points" />
          </mxGeometry>
        </mxCell>
        <mxCell id="215" value="1" style="edgeLabel;html=1;align=center;verticalAlign=middle;resizable=0;points=[];" connectable="0" vertex="1" parent="214">
          <mxGeometry x="-0.8596" y="4" relative="1" as="geometry">
            <mxPoint as="offset" />
          </mxGeometry>
        </mxCell>
        <mxCell id="216" value="1" style="edgeLabel;html=1;align=center;verticalAlign=middle;resizable=0;points=[];" connectable="0" vertex="1" parent="214">
          <mxGeometry x="0.7682" y="-2" relative="1" as="geometry">
            <mxPoint as="offset" />
          </mxGeometry>
        </mxCell>
        <mxCell id="217" style="rounded=0;orthogonalLoop=1;jettySize=auto;html=1;entryX=1;entryY=0.5;entryDx=0;entryDy=0;endArrow=diamondThin;endFill=1;" edge="1" source="220" parent="1">
          <mxGeometry relative="1" as="geometry">
            <mxPoint x="3090" y="2901.262321428572" as="targetPoint" />
          </mxGeometry>
        </mxCell>
        <mxCell id="218" value="1" style="edgeLabel;html=1;align=center;verticalAlign=middle;resizable=0;points=[];" connectable="0" vertex="1" parent="217">
          <mxGeometry x="-0.6969" y="-1" relative="1" as="geometry">
            <mxPoint as="offset" />
          </mxGeometry>
        </mxCell>
        <mxCell id="219" value="1" style="edgeLabel;html=1;align=center;verticalAlign=middle;resizable=0;points=[];" connectable="0" vertex="1" parent="217">
          <mxGeometry x="0.4165" relative="1" as="geometry">
            <mxPoint as="offset" />
          </mxGeometry>
        </mxCell>
        <mxCell id="220" value="&lt;&lt;enumeration&gt;&gt;&#xa;ConflictResolutionStrategy" style="swimlane;fontStyle=1;align=center;verticalAlign=top;childLayout=stackLayout;horizontal=1;startSize=50;horizontalStack=0;resizeParent=1;resizeParentMax=0;resizeLast=0;collapsible=0;marginBottom=0;fillColor=#d5e8d4;strokeColor=#82b366;" vertex="1" parent="1">
          <mxGeometry x="3180" y="2839.24" width="251" height="100" as="geometry" />
        </mxCell>
        <mxCell id="221" value="+string Skip" style="text;strokeColor=none;fillColor=none;align=left;verticalAlign=top;spacingLeft=4;spacingRight=4;overflow=hidden;rotatable=0;points=[[0,0.5],[1,0.5]];portConstraint=eastwest;" vertex="1" parent="220">
          <mxGeometry y="50" width="251" height="25" as="geometry" />
        </mxCell>
        <mxCell id="222" value="+string LeaveEmptyField" style="text;strokeColor=none;fillColor=none;align=left;verticalAlign=top;spacingLeft=4;spacingRight=4;overflow=hidden;rotatable=0;points=[[0,0.5],[1,0.5]];portConstraint=eastwest;" vertex="1" parent="220">
          <mxGeometry y="75" width="251" height="25" as="geometry" />
        </mxCell>
        <mxCell id="223" style="rounded=0;orthogonalLoop=1;jettySize=auto;html=1;entryX=0.567;entryY=1.073;entryDx=0;entryDy=0;entryPerimeter=0;endArrow=open;endFill=0;" edge="1" source="11" target="9" parent="1">
          <mxGeometry relative="1" as="geometry" />
        </mxCell>
      </root>
    </mxGraphModel>
  </diagram>
</mxfile>
